<?xml version="1.0" standalone="no"?>
<!DOCTYPE svg PUBLIC "-//W3C//DTD SVG 20010904//EN"
 "http://www.w3.org/TR/2001/REC-SVG-20010904/DTD/svg10.dtd">
<svg version="1.0" xmlns="http://www.w3.org/2000/svg"
 width="225.000000pt" height="225.000000pt" viewBox="0 0 225.000000 225.000000"
 preserveAspectRatio="xMidYMid meet">

<g transform="translate(0.000000,225.000000) scale(0.100000,-0.100000)"
fill="#000000" stroke="none">
<path d="M1245 2235 c-22 -8 -52 -28 -67 -45 l-28 -30 -200 0 c-213 0 -257 -8
-279 -48 -20 -38 -13 -82 18 -113 l29 -29 214 0 214 0 37 -38 c35 -35 37 -42
37 -100 0 -34 -4 -62 -10 -62 -28 0 -127 -47 -178 -85 l-59 -43 -219 -4 c-205
-4 -224 -6 -301 -32 -196 -64 -355 -223 -420 -420 -25 -78 -27 -92 -31 -343
l-4 -263 30 -30 c28 -27 36 -30 96 -30 l67 0 -41 -73 c-52 -96 -64 -157 -44
-232 26 -101 95 -173 193 -201 195 -57 387 115 350 313 -5 25 -27 79 -49 120
l-41 73 67 0 c59 0 68 3 95 29 l29 29 0 147 c0 81 5 155 10 166 20 36 63 49
170 49 91 0 105 -2 138 -25 71 -48 152 -68 267 -63 98 3 107 6 187 46 l83 42
292 0 292 0 28 24 28 24 0 302 0 302 -28 24 -28 24 -271 0 -270 0 -35 31 c-31
27 -108 68 -185 98 -26 10 -28 15 -28 66 0 51 3 58 40 95 l40 40 211 0 c125 0
218 4 230 10 22 12 49 61 49 89 0 12 -13 35 -29 53 l-29 33 -219 3 -218 3 -30
29 c-58 56 -125 71 -200 45z m194 -669 c19 -10 56 -39 84 -65 l49 -46 244 -3
244 -3 0 -164 0 -165 -267 0 -267 0 -50 -35 c-60 -41 -141 -61 -207 -51 -27 4
-75 24 -112 46 l-66 40 -158 0 c-178 0 -208 -8 -281 -74 -60 -55 -85 -121 -90
-243 l-4 -103 -185 0 -185 0 4 203 3 203 38 78 c51 101 122 172 223 223 l78
38 255 5 c168 3 263 9 276 17 11 6 34 26 50 43 17 18 53 43 80 57 43 21 61 24
130 20 51 -2 92 -10 114 -21z m-998 -1218 c36 -72 36 -92 0 -129 -41 -40 -91
-40 -132 0 -16 16 -29 39 -29 51 0 22 40 107 73 154 l20 29 20 -24 c10 -13 32
-50 48 -81z"/>
</g>
</svg>
